<?xml version="1.0" encoding="UTF-8" standalone="no"?>
<!DOCTYPE svg PUBLIC "-//W3C//DTD SVG 1.1//EN"
 "http://www.w3.org/Graphics/SVG/1.1/DTD/svg11.dtd">
<!-- Generated by graphviz version 12.1.2 (20240928.0832)
 -->
<!-- Title: SemanticTools Pages: 1 -->
<svg width="332pt" height="252pt"
 viewBox="0.00 0.00 332.25 251.50" xmlns="http://www.w3.org/2000/svg" xmlns:xlink="http://www.w3.org/1999/xlink">
<g id="graph0" class="graph" transform="scale(1 1) rotate(0) translate(4 247.5)">
<title>SemanticTools</title>
<polygon fill="white" stroke="none" points="-4,4 -4,-247.5 328.25,-247.5 328.25,4 -4,4"/>
<text text-anchor="middle" x="162.12" y="-220.5" font-family="Times New Roman,serif" font-size="20.00">Climate Justice Dictionary</text>
<!-- literature search -->
<g id="node1" class="node">
<title>literature search</title>
<polygon fill="lightpink" stroke="black" points="103,-213 0,-213 0,-177 103,-177 103,-213"/>
<text text-anchor="middle" x="51.5" y="-189.95" font-family="Times New Roman,serif" font-size="14.00">literature search</text>
</g>
<!-- Wordlist -->
<g id="node2" class="node">
<title>Wordlist</title>
<polygon fill="lightyellow" stroke="black" points="167.75,-124.5 105.25,-124.5 105.25,-88.5 167.75,-88.5 167.75,-124.5"/>
<text text-anchor="middle" x="136.5" y="-101.45" font-family="Times New Roman,serif" font-size="14.00">Wordlist</text>
</g>
<!-- literature search&#45;&gt;Wordlist -->
<g id="edge1" class="edge">
<title>literature search&#45;&gt;Wordlist</title>
<path fill="none" stroke="black" d="M68.29,-176.91C80.67,-164.32 97.7,-146.98 111.65,-132.79"/>
<polygon fill="black" stroke="black" points="113.88,-135.52 118.39,-125.93 108.88,-130.61 113.88,-135.52"/>
</g>
<!-- Dictionary(Wikimedia enhanced) -->
<g id="node3" class="node">
<title>Dictionary(Wikimedia enhanced)</title>
<polygon fill="lightblue" stroke="black" points="235.62,-36 37.38,-36 37.38,0 235.62,0 235.62,-36"/>
<text text-anchor="middle" x="136.5" y="-12.95" font-family="Times New Roman,serif" font-size="14.00">Dictionary(Wikimedia enhanced)</text>
</g>
<!-- Wordlist&#45;&gt;Dictionary(Wikimedia enhanced) -->
<g id="edge2" class="edge">
<title>Wordlist&#45;&gt;Dictionary(Wikimedia enhanced)</title>
<path fill="none" stroke="black" d="M136.5,-88.41C136.5,-76.76 136.5,-61.05 136.5,-47.52"/>
<polygon fill="black" stroke="black" points="140,-47.86 136.5,-37.86 133,-47.86 140,-47.86"/>
<text text-anchor="middle" x="159.75" y="-57.2" font-family="Times New Roman,serif" font-size="14.00"> &#160;&#160;amilib</text>
</g>
<!-- IPCC Chapters(on climate justice) -->
<g id="node4" class="node">
<title>IPCC Chapters(on climate justice)</title>
<polygon fill="lightpink" stroke="black" points="324.25,-213 120.75,-213 120.75,-177 324.25,-177 324.25,-213"/>
<text text-anchor="middle" x="222.5" y="-189.95" font-family="Times New Roman,serif" font-size="14.00">IPCC Chapters(on climate justice)</text>
</g>
<!-- IPCC Chapters(on climate justice)&#45;&gt;Wordlist -->
<g id="edge3" class="edge">
<title>IPCC Chapters(on climate justice)&#45;&gt;Wordlist</title>
<path fill="none" stroke="black" d="M205.51,-176.91C192.99,-164.32 175.75,-146.98 161.64,-132.79"/>
<polygon fill="black" stroke="black" points="164.35,-130.55 154.82,-125.92 159.39,-135.48 164.35,-130.55"/>
<text text-anchor="middle" x="248.7" y="-145.7" font-family="Times New Roman,serif" font-size="14.00"> &#160;&#160;Keyword extraction </text>
</g>
</g>
</svg>
