<?xml version="1.0" encoding="UTF-8" standalone="no"?>
<!DOCTYPE svg PUBLIC "-//W3C//DTD SVG 1.1//EN"
 "http://www.w3.org/Graphics/SVG/1.1/DTD/svg11.dtd">
<!-- Generated by graphviz version 12.1.2 (20240928.0832)
 -->
<!-- Title: SemanticTools Pages: 1 -->
<svg width="243pt" height="252pt"
 viewBox="0.00 0.00 243.00 251.50" xmlns="http://www.w3.org/2000/svg" xmlns:xlink="http://www.w3.org/1999/xlink">
<g id="graph0" class="graph" transform="scale(1 1) rotate(0) translate(4 247.5)">
<title>SemanticTools</title>
<polygon fill="white" stroke="none" points="-4,4 -4,-247.5 239,-247.5 239,4 -4,4"/>
<text text-anchor="middle" x="117.5" y="-220.5" font-family="Times New Roman,serif" font-size="20.00">Scientific Literature Search</text>
<!-- EPMC -->
<g id="node1" class="node">
<title>EPMC</title>
<polygon fill="lightpink" stroke="black" points="144.5,-213 90.5,-213 90.5,-177 144.5,-177 144.5,-213"/>
<text text-anchor="middle" x="117.5" y="-189.95" font-family="Times New Roman,serif" font-size="14.00">EPMC</text>
</g>
<!-- Scientific_Literature_Corpus -->
<g id="node2" class="node">
<title>Scientific_Literature_Corpus</title>
<polygon fill="lightyellow" stroke="black" points="204.25,-124.5 30.75,-124.5 30.75,-88.5 204.25,-88.5 204.25,-124.5"/>
<text text-anchor="middle" x="117.5" y="-101.45" font-family="Times New Roman,serif" font-size="14.00">Scientific_Literature_Corpus</text>
</g>
<!-- EPMC&#45;&gt;Scientific_Literature_Corpus -->
<g id="edge1" class="edge">
<title>EPMC&#45;&gt;Scientific_Literature_Corpus</title>
<path fill="none" stroke="black" d="M117.5,-176.91C117.5,-165.26 117.5,-149.55 117.5,-136.02"/>
<polygon fill="black" stroke="black" points="121,-136.36 117.5,-126.36 114,-136.36 121,-136.36"/>
<text text-anchor="middle" x="155.75" y="-145.7" font-family="Times New Roman,serif" font-size="14.00"> &#160;&#160;pygetpapers</text>
</g>
<!-- j_query_datatables -->
<g id="node3" class="node">
<title>j_query_datatables</title>
<polygon fill="lightblue" stroke="black" points="173.12,-36 61.88,-36 61.88,0 173.12,0 173.12,-36"/>
<text text-anchor="middle" x="117.5" y="-12.95" font-family="Times New Roman,serif" font-size="14.00">jQuery datatables</text>
</g>
<!-- Scientific_Literature_Corpus&#45;&gt;j_query_datatables -->
<g id="edge2" class="edge">
<title>Scientific_Literature_Corpus&#45;&gt;j_query_datatables</title>
<path fill="none" stroke="black" d="M117.5,-88.41C117.5,-76.76 117.5,-61.05 117.5,-47.52"/>
<polygon fill="black" stroke="black" points="121,-47.86 117.5,-37.86 114,-47.86 121,-47.86"/>
<text text-anchor="middle" x="140.75" y="-57.2" font-family="Times New Roman,serif" font-size="14.00"> &#160;&#160;amilib</text>
</g>
</g>
</svg>
