<?xml version="1.0" encoding="UTF-8" standalone="no"?>
<!DOCTYPE svg PUBLIC "-//W3C//DTD SVG 1.1//EN"
 "http://www.w3.org/Graphics/SVG/1.1/DTD/svg11.dtd">
<!-- Generated by graphviz version 12.1.2 (20240928.0832)
 -->
<!-- Title: IPCC_Reports Pages: 1 -->
<svg width="427pt" height="883pt"
 viewBox="0.00 0.00 426.75 882.50" xmlns="http://www.w3.org/2000/svg" xmlns:xlink="http://www.w3.org/1999/xlink">
<g id="graph0" class="graph" transform="scale(1 1) rotate(0) translate(4 878.5)">
<title>IPCC_Reports</title>
<polygon fill="white" stroke="none" points="-4,4 -4,-878.5 422.75,-878.5 422.75,4 -4,4"/>
<text text-anchor="middle" x="209.38" y="-851.5" font-family="Times New Roman,serif" font-size="20.00">The UN IPCC Reports mentioning Climate Justice</text>
<g id="clust1" class="cluster">
<title>cluster_WG2_Chapters</title>
<polygon fill="lightgrey" stroke="lightgrey" points="175.12,-8 175.12,-780 273.12,-780 273.12,-8 175.12,-8"/>
</g>
<g id="clust2" class="cluster">
<title>cluster_WG3_Chapters</title>
<polygon fill="lightgrey" stroke="lightgrey" points="281.12,-440 281.12,-780 379.12,-780 379.12,-440 281.12,-440"/>
</g>
<!-- UN IPCC Reports -->
<g id="node1" class="node">
<title>UN IPCC Reports</title>
<polygon fill="lightblue" stroke="black" points="281.62,-844 166.62,-844 166.62,-808 281.62,-808 281.62,-844"/>
<text text-anchor="middle" x="224.12" y="-820.95" font-family="Times New Roman,serif" font-size="14.00">UN IPCC Reports</text>
</g>
<!-- SYR / Longer Report -->
<g id="node2" class="node">
<title>SYR / Longer Report</title>
<polygon fill="lightyellow" stroke="black" points="164.62,-772 31.62,-772 31.62,-736 164.62,-736 164.62,-772"/>
<text text-anchor="middle" x="98.12" y="-748.95" font-family="Times New Roman,serif" font-size="14.00">SYR / Longer Report</text>
</g>
<!-- UN IPCC Reports&#45;&gt;SYR / Longer Report -->
<g id="edge1" class="edge">
<title>UN IPCC Reports&#45;&gt;SYR / Longer Report</title>
<path fill="none" stroke="black" d="M192.65,-807.52C176.45,-798.51 156.49,-787.42 139.09,-777.76"/>
<polygon fill="black" stroke="black" points="140.96,-774.79 130.52,-773 137.56,-780.91 140.96,-774.79"/>
</g>
<!-- AR6 / WG2 -->
<g id="node3" class="node">
<title>AR6 / WG2</title>
<polygon fill="lightyellow" stroke="black" points="265.12,-772 183.12,-772 183.12,-736 265.12,-736 265.12,-772"/>
<text text-anchor="middle" x="224.12" y="-748.95" font-family="Times New Roman,serif" font-size="14.00">AR6 / WG2</text>
</g>
<!-- UN IPCC Reports&#45;&gt;AR6 / WG2 -->
<g id="edge2" class="edge">
<title>UN IPCC Reports&#45;&gt;AR6 / WG2</title>
<path fill="none" stroke="black" d="M224.12,-807.7C224.12,-800.41 224.12,-791.73 224.12,-783.54"/>
<polygon fill="black" stroke="black" points="227.63,-783.62 224.13,-773.62 220.63,-783.62 227.63,-783.62"/>
</g>
<!-- AR6 / WG3 -->
<g id="node14" class="node">
<title>AR6 / WG3</title>
<polygon fill="lightyellow" stroke="black" points="371.12,-772 289.12,-772 289.12,-736 371.12,-736 371.12,-772"/>
<text text-anchor="middle" x="330.12" y="-748.95" font-family="Times New Roman,serif" font-size="14.00">AR6 / WG3</text>
</g>
<!-- UN IPCC Reports&#45;&gt;AR6 / WG3 -->
<g id="edge13" class="edge">
<title>UN IPCC Reports&#45;&gt;AR6 / WG3</title>
<path fill="none" stroke="black" d="M250.6,-807.52C263.85,-798.76 280.09,-788.04 294.42,-778.58"/>
<polygon fill="black" stroke="black" points="296.31,-781.53 302.72,-773.09 292.45,-775.68 296.31,-781.53"/>
</g>
<!-- Chapter 01 -->
<g id="node4" class="node">
<title>Chapter 01</title>
<polygon fill="lightgreen" stroke="black" points="262.12,-700 186.12,-700 186.12,-664 262.12,-664 262.12,-700"/>
<text text-anchor="middle" x="224.12" y="-676.95" font-family="Times New Roman,serif" font-size="14.00">Chapter 01</text>
</g>
<!-- AR6 / WG2&#45;&gt;Chapter 01 -->
<!-- Chapter 04 -->
<g id="node5" class="node">
<title>Chapter 04</title>
<polygon fill="lightgreen" stroke="black" points="262.12,-628 186.12,-628 186.12,-592 262.12,-592 262.12,-628"/>
<text text-anchor="middle" x="224.12" y="-604.95" font-family="Times New Roman,serif" font-size="14.00">Chapter 04</text>
</g>
<!-- Chapter 01&#45;&gt;Chapter 04 -->
<!-- Chapter 05_WG2 -->
<g id="node6" class="node">
<title>Chapter 05_WG2</title>
<polygon fill="lightgreen" stroke="black" points="262.12,-556 186.12,-556 186.12,-520 262.12,-520 262.12,-556"/>
<text text-anchor="middle" x="224.12" y="-532.95" font-family="Times New Roman,serif" font-size="14.00">Chapter 05</text>
</g>
<!-- Chapter 04&#45;&gt;Chapter 05_WG2 -->
<!-- Chapter 06 -->
<g id="node7" class="node">
<title>Chapter 06</title>
<polygon fill="lightgreen" stroke="black" points="262.12,-484 186.12,-484 186.12,-448 262.12,-448 262.12,-484"/>
<text text-anchor="middle" x="224.12" y="-460.95" font-family="Times New Roman,serif" font-size="14.00">Chapter 06</text>
</g>
<!-- Chapter 05_WG2&#45;&gt;Chapter 06 -->
<!-- Chapter 08 -->
<g id="node8" class="node">
<title>Chapter 08</title>
<polygon fill="lightgreen" stroke="black" points="262.12,-412 186.12,-412 186.12,-376 262.12,-376 262.12,-412"/>
<text text-anchor="middle" x="224.12" y="-388.95" font-family="Times New Roman,serif" font-size="14.00">Chapter 08</text>
</g>
<!-- Chapter 06&#45;&gt;Chapter 08 -->
<!-- Chapter 09 -->
<g id="node9" class="node">
<title>Chapter 09</title>
<polygon fill="lightgreen" stroke="black" points="262.12,-340 186.12,-340 186.12,-304 262.12,-304 262.12,-340"/>
<text text-anchor="middle" x="224.12" y="-316.95" font-family="Times New Roman,serif" font-size="14.00">Chapter 09</text>
</g>
<!-- Chapter 08&#45;&gt;Chapter 09 -->
<!-- Chapter 10 -->
<g id="node10" class="node">
<title>Chapter 10</title>
<polygon fill="lightgreen" stroke="black" points="262.12,-268 186.12,-268 186.12,-232 262.12,-232 262.12,-268"/>
<text text-anchor="middle" x="224.12" y="-244.95" font-family="Times New Roman,serif" font-size="14.00">Chapter 10</text>
</g>
<!-- Chapter 09&#45;&gt;Chapter 10 -->
<!-- Chapter 12 -->
<g id="node11" class="node">
<title>Chapter 12</title>
<polygon fill="lightgreen" stroke="black" points="262.12,-196 186.12,-196 186.12,-160 262.12,-160 262.12,-196"/>
<text text-anchor="middle" x="224.12" y="-172.95" font-family="Times New Roman,serif" font-size="14.00">Chapter 12</text>
</g>
<!-- Chapter 10&#45;&gt;Chapter 12 -->
<!-- Chapter 15_WG2 -->
<g id="node12" class="node">
<title>Chapter 15_WG2</title>
<polygon fill="lightgreen" stroke="black" points="262.12,-124 186.12,-124 186.12,-88 262.12,-88 262.12,-124"/>
<text text-anchor="middle" x="224.12" y="-100.95" font-family="Times New Roman,serif" font-size="14.00">Chapter 15</text>
</g>
<!-- Chapter 12&#45;&gt;Chapter 15_WG2 -->
<!-- Chapter 18 -->
<g id="node13" class="node">
<title>Chapter 18</title>
<polygon fill="lightgreen" stroke="black" points="262.12,-52 186.12,-52 186.12,-16 262.12,-16 262.12,-52"/>
<text text-anchor="middle" x="224.12" y="-28.95" font-family="Times New Roman,serif" font-size="14.00">Chapter 18</text>
</g>
<!-- Chapter 15_WG2&#45;&gt;Chapter 18 -->
<!-- Chapter 05_WG3 -->
<g id="node15" class="node">
<title>Chapter 05_WG3</title>
<polygon fill="lightpink" stroke="black" points="368.12,-700 292.12,-700 292.12,-664 368.12,-664 368.12,-700"/>
<text text-anchor="middle" x="330.12" y="-676.95" font-family="Times New Roman,serif" font-size="14.00">Chapter 05</text>
</g>
<!-- AR6 / WG3&#45;&gt;Chapter 05_WG3 -->
<!-- Chapter 13 -->
<g id="node16" class="node">
<title>Chapter 13</title>
<polygon fill="lightpink" stroke="black" points="368.12,-628 292.12,-628 292.12,-592 368.12,-592 368.12,-628"/>
<text text-anchor="middle" x="330.12" y="-604.95" font-family="Times New Roman,serif" font-size="14.00">Chapter 13</text>
</g>
<!-- Chapter 05_WG3&#45;&gt;Chapter 13 -->
<!-- Chapter 14 -->
<g id="node17" class="node">
<title>Chapter 14</title>
<polygon fill="lightpink" stroke="black" points="368.12,-556 292.12,-556 292.12,-520 368.12,-520 368.12,-556"/>
<text text-anchor="middle" x="330.12" y="-532.95" font-family="Times New Roman,serif" font-size="14.00">Chapter 14</text>
</g>
<!-- Chapter 13&#45;&gt;Chapter 14 -->
<!-- Chapter 15_WG3 -->
<g id="node18" class="node">
<title>Chapter 15_WG3</title>
<polygon fill="lightpink" stroke="black" points="368.12,-484 292.12,-484 292.12,-448 368.12,-448 368.12,-484"/>
<text text-anchor="middle" x="330.12" y="-460.95" font-family="Times New Roman,serif" font-size="14.00">Chapter 15</text>
</g>
<!-- Chapter 14&#45;&gt;Chapter 15_WG3 -->
</g>
</svg>
