<?xml version="1.0" encoding="UTF-8" standalone="no"?>
<!DOCTYPE svg PUBLIC "-//W3C//DTD SVG 1.1//EN"
 "http://www.w3.org/Graphics/SVG/1.1/DTD/svg11.dtd">
<!-- Generated by graphviz version 12.1.2 (20240928.0832)
 -->
<!-- Pages: 1 -->
<svg width="428pt" height="133pt"
 viewBox="0.00 0.00 427.88 132.50" xmlns="http://www.w3.org/2000/svg" xmlns:xlink="http://www.w3.org/1999/xlink">
<g id="graph0" class="graph" transform="scale(1 1) rotate(0) translate(4 128.5)">
<polygon fill="white" stroke="none" points="-4,4 -4,-128.5 423.88,-128.5 423.88,4 -4,4"/>
<!-- Word list 100 articles – 25 terms -->
<g id="node1" class="node">
<title>Word list 100 articles – 25 terms</title>
<polygon fill="lightpink" stroke="black" points="199,-124.5 0,-124.5 0,-88.5 199,-88.5 199,-124.5"/>
<text text-anchor="middle" x="99.5" y="-101.45" font-family="Times New Roman,serif" font-size="14.00">Word list 100 articles – 25 terms </text>
</g>
<!-- Word list: Climate Justice Dictionary – 76 terms -->
<g id="node3" class="node">
<title>Word list: Climate Justice Dictionary – 76 terms</title>
<polygon fill="lightblue" stroke="black" points="349.25,-36 67.75,-36 67.75,0 349.25,0 349.25,-36"/>
<text text-anchor="middle" x="208.5" y="-12.95" font-family="Times New Roman,serif" font-size="14.00">Word list: Climate Justice Dictionary – 76 terms</text>
</g>
<!-- Word list 100 articles – 25 terms&#45;&gt;Word list: Climate Justice Dictionary – 76 terms -->
<g id="edge1" class="edge">
<title>Word list 100 articles – 25 terms&#45;&gt;Word list: Climate Justice Dictionary – 76 terms</title>
<path fill="none" stroke="black" d="M121.3,-88.2C137.48,-75.36 159.78,-57.66 177.78,-43.38"/>
<polygon fill="black" stroke="black" points="179.9,-46.17 185.56,-37.21 175.55,-40.68 179.9,-46.17"/>
<text text-anchor="middle" x="225.26" y="-57.2" font-family="Times New Roman,serif" font-size="14.00"> &#160;&#160;Keyword extraction </text>
</g>
<!-- Word list IPCC Report – 51 terms -->
<g id="node2" class="node">
<title>Word list IPCC Report – 51 terms</title>
<polygon fill="lightpink" stroke="black" points="419.88,-124.5 217.12,-124.5 217.12,-88.5 419.88,-88.5 419.88,-124.5"/>
<text text-anchor="middle" x="318.5" y="-101.45" font-family="Times New Roman,serif" font-size="14.00">Word list IPCC Report – 51 terms</text>
</g>
<!-- Word list IPCC Report – 51 terms&#45;&gt;Word list: Climate Justice Dictionary – 76 terms -->
<g id="edge2" class="edge">
<title>Word list IPCC Report – 51 terms&#45;&gt;Word list: Climate Justice Dictionary – 76 terms</title>
<path fill="none" stroke="black" d="M312.56,-88.3C308,-77.27 300.74,-63.31 290.5,-54 285.39,-49.35 279.57,-45.26 273.44,-41.67"/>
<polygon fill="black" stroke="black" points="275.43,-38.77 264.96,-37.16 272.14,-44.94 275.43,-38.77"/>
</g>
</g>
</svg>
